<svg xmlns="http://www.w3.org/2000/svg" xmlns:xlink="http://www.w3.org/1999/xlink" viewBox="0,0,256,256" width="100px" height="100px"><g fill="none" fill-rule="nonzero" stroke="none" stroke-width="1" stroke-linecap="butt" stroke-linejoin="miter" stroke-miterlimit="10" stroke-dasharray="" stroke-dashoffset="0" font-family="none" font-weight="none" font-size="none" text-anchor="none" style="mix-blend-mode: normal"><g transform="scale(5.12,5.12)"><path d="M7.854,11.705c-0.083,-2.448 1.774,-4.705 4.285,-4.705h25.726c2.511,0 4.368,2.257 4.285,4.705c-0.08,2.351 0.024,5.397 0.77,7.88c0.749,2.491 2.012,4.066 4.08,4.268v2.294c-2.068,0.202 -3.331,1.777 -4.08,4.268c-0.747,2.483 -0.85,5.529 -0.77,7.88c0.082,2.448 -1.775,4.705 -4.286,4.705h-25.725c-2.511,0 -4.368,-2.257 -4.285,-4.705c0.08,-2.351 -0.024,-5.397 -0.771,-7.88c-0.748,-2.491 -2.014,-4.066 -4.083,-4.268v-2.294c2.068,-0.202 3.335,-1.777 4.083,-4.268c0.747,-2.483 0.851,-5.529 0.771,-7.88z" fill="#f8efd4"></path><path d="M27.79,24.451v-0.029c1.911,-0.33 3.402,-2.121 3.402,-4.094c0,-1.395 -0.536,-2.576 -1.551,-3.416c-1.011,-0.837 -2.431,-1.28 -4.105,-1.28h-7.669v18.734h7.709c2.003,0 3.666,-0.489 4.808,-1.415c1.144,-0.927 1.749,-2.276 1.749,-3.901c0,-2.454 -1.744,-4.298 -4.343,-4.599zM24.199,23.568h-3.28v-5.484h3.903c2.141,0 3.32,0.939 3.32,2.645c-0.001,1.831 -1.401,2.839 -3.943,2.839zM20.919,25.864h3.876c2.8,0 4.22,1.012 4.22,3.007c0,1.993 -1.4,3.046 -4.048,3.046h-4.048z" fill="#000000"></path></g></g></svg>